<?xml version="1.0" encoding="UTF-8" standalone="no"?>
<!-- Created with Inkscape (http://www.inkscape.org/) -->

<svg
   version="1.1"
   id="svg1"
   width="1365.3333"
   height="1365.3333"
   viewBox="0 0 1365.3333 1365.3333"
   xmlns="http://www.w3.org/2000/svg"
   xmlns:svg="http://www.w3.org/2000/svg">
  <defs
     id="defs1">
    <clipPath
       clipPathUnits="userSpaceOnUse"
       id="clipPath4">
      <path
         d="M 0,1024 H 1024 V 0 H 0 Z"
         transform="translate(-522.01072,-561.07611)"
         id="path4" />
    </clipPath>
    <clipPath
       clipPathUnits="userSpaceOnUse"
       id="clipPath6">
      <path
         d="M 0,1024 H 1024 V 0 H 0 Z"
         transform="translate(-532.67141,-431.12591)"
         id="path6" />
    </clipPath>
    <clipPath
       clipPathUnits="userSpaceOnUse"
       id="clipPath8">
      <path
         d="M 0,1024 H 1024 V 0 H 0 Z"
         transform="translate(-527.45362,-295.47131)"
         id="path8" />
    </clipPath>
    <clipPath
       clipPathUnits="userSpaceOnUse"
       id="clipPath10">
      <path
         d="M 0,1024 H 1024 V 0 H 0 Z"
         transform="translate(-514.58741,-642.40472)"
         id="path10" />
    </clipPath>
    <clipPath
       clipPathUnits="userSpaceOnUse"
       id="clipPath12">
      <path
         d="M 0,1024 H 1024 V 0 H 0 Z"
         transform="translate(-522.01072,-561.07611)"
         id="path12" />
    </clipPath>
    <clipPath
       clipPathUnits="userSpaceOnUse"
       id="clipPath14">
      <path
         d="M 0,1024 H 1024 V 0 H 0 Z"
         transform="translate(-532.67141,-431.12591)"
         id="path14" />
    </clipPath>
    <clipPath
       clipPathUnits="userSpaceOnUse"
       id="clipPath16">
      <path
         d="M 0,1024 H 1024 V 0 H 0 Z"
         transform="translate(-527.45362,-295.47131)"
         id="path16" />
    </clipPath>
    <clipPath
       clipPathUnits="userSpaceOnUse"
       id="clipPath18">
      <path
         d="M 0,1024 H 1024 V 0 H 0 Z"
         transform="translate(-514.58741,-642.40472)"
         id="path18" />
    </clipPath>
    <clipPath
       clipPathUnits="userSpaceOnUse"
       id="clipPath20">
      <path
         d="M 0,1024 H 1024 V 0 H 0 Z"
         transform="translate(0,-2.5000001e-5)"
         id="path20" />
    </clipPath>
    <clipPath
       clipPathUnits="userSpaceOnUse"
       id="clipPath22">
      <path
         d="M 0,1024 H 1024 V 0 H 0 Z"
         transform="translate(-513.91061,-810.76172)"
         id="path22" />
    </clipPath>
    <clipPath
       clipPathUnits="userSpaceOnUse"
       id="clipPath24">
      <path
         d="M 0,1024 H 1024 V 0 H 0 Z"
         transform="translate(-690.50932,-767.36042)"
         id="path24" />
    </clipPath>
    <clipPath
       clipPathUnits="userSpaceOnUse"
       id="clipPath26">
      <path
         d="M 0,1024 H 1024 V 0 H 0 Z"
         transform="translate(0,-2.5000001e-5)"
         id="path26" />
    </clipPath>
    <clipPath
       clipPathUnits="userSpaceOnUse"
       id="clipPath28">
      <path
         d="M 0,1024 H 1024 V 0 H 0 Z"
         transform="translate(-690.50932,-534.36182)"
         id="path28" />
    </clipPath>
    <clipPath
       clipPathUnits="userSpaceOnUse"
       id="clipPath30">
      <path
         d="M 0,1024 H 1024 V 0 H 0 Z"
         transform="translate(-929.21972,-556.06341)"
         id="path30" />
    </clipPath>
    <clipPath
       clipPathUnits="userSpaceOnUse"
       id="clipPath32">
      <path
         d="M 0,1024 H 1024 V 0 H 0 Z"
         transform="translate(0,-2.5000001e-5)"
         id="path32" />
    </clipPath>
    <clipPath
       clipPathUnits="userSpaceOnUse"
       id="clipPath34">
      <path
         d="M 0,1024 H 1024 V 0 H 0 Z"
         transform="translate(0,-2.5000001e-5)"
         id="path34" />
    </clipPath>
  </defs>
  <g
     id="layer-MC0">
    <path
       id="path1"
       d="M 0.001,0 H 1024 V 1024 H 0.001 Z"
       style="fill:#029ed7;fill-opacity:1;fill-rule:nonzero;stroke:none"
       transform="matrix(1.3333333,0,0,-1.3333333,0,1365.3333)" />
    <path
       id="path3"
       d="m 0,0 c -38.156,-12.973 -96.172,-26.212 -174.046,-26.212 -152.682,0 -229.024,50.893 -229.024,50.893 V 126.47 c 0,0 76.342,-50.894 229.024,-50.894 73.822,0 129.8,11.898 167.929,24.189 C 34.612,112.895 36.651,12.464 0,0"
       style="fill:#ffffff;fill-opacity:1;fill-rule:nonzero;stroke:none"
       transform="matrix(1.3333333,0,0,-1.3333333,696.01427,617.23187)"
       clip-path="url(#clipPath4)" />
    <path
       id="path5"
       d="m 0,0 c -37.62,-14.046 -99.188,-30.012 -184.707,-30.012 -152.682,0 -229.023,50.892 -229.023,50.892 v 101.792 c 0,0 76.341,-50.897 229.023,-50.897 81.377,0 141.069,14.459 179.074,27.963 C 27.666,111.57 29.544,11.031 0,0"
       style="fill:#ffffff;fill-opacity:1;fill-rule:nonzero;stroke:none"
       transform="matrix(1.3333333,0,0,-1.3333333,710.22853,790.4988)"
       clip-path="url(#clipPath6)" />
    <path
       id="path7"
       d="m 0,0 c -37.983,-13.544 -97.814,-28.107 -179.489,-28.107 -152.682,0 -229.024,50.893 -229.024,50.893 v 101.789 c 0,0 76.342,-50.895 229.024,-50.895 80.031,0 139.086,13.983 177.167,27.291 C 32.249,113.05 33.023,11.778 0,0"
       style="fill:#ffffff;fill-opacity:1;fill-rule:nonzero;stroke:none"
       transform="matrix(1.3333333,0,0,-1.3333333,703.27147,971.3716)"
       clip-path="url(#clipPath8)" />
    <path
       id="path9"
       d="m 0,0 c -41.755,-14.752 -100.953,-23.964 -166.609,-23.964 -126.504,0 -229.025,34.193 -229.025,76.34 0,42.147 102.521,76.341 229.025,76.341 65.165,0 123.967,-9.072 165.67,-23.632"
       style="fill:#ffffff;fill-opacity:1;fill-rule:nonzero;stroke:none"
       transform="matrix(1.3333333,0,0,-1.3333333,686.11653,508.79373)"
       clip-path="url(#clipPath10)" />
    <path
       id="path11"
       d="m 0,0 c -38.156,-12.973 -96.172,-26.212 -174.046,-26.212 -152.682,0 -229.024,50.893 -229.024,50.893 V 126.47 c 0,0 76.342,-50.894 229.024,-50.894 73.822,0 129.8,11.898 167.929,24.189 C 34.612,112.895 36.651,12.464 0,0"
       style="fill:#ffffff;fill-opacity:1;fill-rule:nonzero;stroke:none"
       transform="matrix(1.3333333,0,0,-1.3333333,696.01427,617.23187)"
       clip-path="url(#clipPath12)" />
    <path
       id="path13"
       d="m 0,0 c -37.62,-14.046 -99.188,-30.012 -184.707,-30.012 -152.682,0 -229.023,50.892 -229.023,50.892 v 101.792 c 0,0 76.341,-50.897 229.023,-50.897 81.377,0 141.069,14.459 179.074,27.963 C 27.666,111.57 29.544,11.031 0,0"
       style="fill:#ffffff;fill-opacity:1;fill-rule:nonzero;stroke:none"
       transform="matrix(1.3333333,0,0,-1.3333333,710.22853,790.4988)"
       clip-path="url(#clipPath14)" />
    <path
       id="path15"
       d="m 0,0 c -37.983,-13.544 -97.814,-28.107 -179.489,-28.107 -152.682,0 -229.024,50.893 -229.024,50.893 v 101.789 c 0,0 76.342,-50.895 229.024,-50.895 80.031,0 139.086,13.983 177.167,27.291 C 32.249,113.05 33.023,11.778 0,0"
       style="fill:#ffffff;fill-opacity:1;fill-rule:nonzero;stroke:none"
       transform="matrix(1.3333333,0,0,-1.3333333,703.27147,971.3716)"
       clip-path="url(#clipPath16)" />
    <path
       id="path17"
       d="m 0,0 c -41.755,-14.752 -100.953,-23.964 -166.609,-23.964 -126.504,0 -229.025,34.193 -229.025,76.34 0,42.147 102.521,76.341 229.025,76.341 65.165,0 123.967,-9.072 165.67,-23.632"
       style="fill:#ffffff;fill-opacity:1;fill-rule:nonzero;stroke:none"
       transform="matrix(1.3333333,0,0,-1.3333333,686.11653,508.79373)"
       clip-path="url(#clipPath18)" />
    <path
       id="path19"
       d="m 603.262,810.762 h -45.333 v -43.401 h 45.333 z"
       style="fill:#ffffff;fill-opacity:1;fill-rule:nonzero;stroke:none"
       transform="matrix(1.3333333,0,0,-1.3333333,0,1365.3333)"
       clip-path="url(#clipPath20)" />
    <path
       id="path21"
       d="m 0,0 c -21.704,0 -21.704,-21.7 -21.704,-21.7 v -21.701 -21.701 h -21.697 c -23.864,0 -43.402,-19.514 -43.402,-43.399 v -368.913 c 0,-23.855 19.538,-43.392 43.402,-43.392 h 86.802 c 23.861,0 43.394,19.537 43.394,43.392 v 368.913 c 0,23.885 -19.533,43.399 -43.394,43.399 h -21.7 v 21.701 H 52.018 V 0 Z"
       style="fill:#ffffff;fill-opacity:1;fill-rule:nonzero;stroke:none"
       transform="matrix(1.3333333,0,0,-1.3333333,685.21413,284.31773)"
       clip-path="url(#clipPath22)" />
    <path
       id="path23"
       d="m 0,0 v 21.701 c 0,0 0,21.7 -21.697,21.7 h -54.55 V 0 h 32.849 V -106.133 H 0 Z"
       style="fill:#ffffff;fill-opacity:1;fill-rule:nonzero;stroke:none"
       transform="matrix(1.3333333,0,0,-1.3333333,920.67907,342.18613)"
       clip-path="url(#clipPath24)" />
    <path
       id="path25"
       d="m 690.509,644.228 h -43.398 v -53.333 h 43.398 z"
       style="fill:#ffffff;fill-opacity:1;fill-rule:nonzero;stroke:none"
       transform="matrix(1.3333333,0,0,-1.3333333,0,1365.3333)"
       clip-path="url(#clipPath26)" />
    <path
       id="path27"
       d="m 0,0 v 57.533 h -43.398 v -79.236 c 0,0 0,-21.697 21.701,-21.697 H 0 20.366 L 20.557,0 Z"
       style="fill:#ffffff;fill-opacity:1;fill-rule:nonzero;stroke:none"
       transform="matrix(1.3333333,0,0,-1.3333333,920.67907,652.85093)"
       clip-path="url(#clipPath28)" />
    <path
       id="path29"
       d="m 0,0 h -195.309 c -11.93,0 -21.702,-9.746 -21.702,-21.702 h -1.143 l -0.191,-43.399 h 1.334 c 0,-11.93 9.772,-21.701 21.702,-21.701 H 0 c 11.911,0 21.701,9.771 21.701,21.701 v 43.399 C 21.701,-9.746 11.911,0 0,0"
       style="fill:#de2448;fill-opacity:1;fill-rule:nonzero;stroke:none"
       transform="matrix(1.3333333,0,0,-1.3333333,1238.9596,623.91547)"
       clip-path="url(#clipPath30)" />
    <path
       id="path31"
       d="m 690.509,683.228 h -43.398 v -53.333 h 43.398 z"
       style="fill:#ffffff;fill-opacity:1;fill-rule:nonzero;stroke:none"
       transform="matrix(1.3333333,0,0,-1.3333333,0,1365.3333)"
       clip-path="url(#clipPath32)" />
    <path
       id="path33"
       d="m 629.596,810.762 h -45.333 v -43.401 h 45.333 z"
       style="fill:#ffffff;fill-opacity:1;fill-rule:nonzero;stroke:none"
       transform="matrix(1.3333333,0,0,-1.3333333,0,1365.3333)"
       clip-path="url(#clipPath34)" />
  </g>
</svg>
