<?xml version="1.0" encoding="UTF-8" standalone="no"?>
<!-- Created with Inkscape (http://www.inkscape.org/) -->

<svg
   version="1.1"
   id="svg1"
   width="512"
   height="512"
   viewBox="0 0 512.00003 512.00002"
   xmlns="http://www.w3.org/2000/svg"
   xmlns:svg="http://www.w3.org/2000/svg">
  <defs
     id="defs1">
    <clipPath
       clipPathUnits="userSpaceOnUse"
       id="clipPath307">
      <path
         d="M 0,682.667 H 1024 V 0 H 0 Z"
         transform="translate(-498.81726,-369.28421)"
         id="path307" />
    </clipPath>
    <clipPath
       clipPathUnits="userSpaceOnUse"
       id="clipPath309">
      <path
         d="M 0,682.667 H 1024 V 0 H 0 Z"
         transform="translate(-511.69026,-212.3565)"
         id="path309" />
    </clipPath>
    <clipPath
       clipPathUnits="userSpaceOnUse"
       id="clipPath311">
      <path
         d="M 0,682.667 H 1024 V 0 H 0 Z"
         transform="translate(-505.38876,-48.542001)"
         id="path311" />
    </clipPath>
    <clipPath
       clipPathUnits="userSpaceOnUse"
       id="clipPath313">
      <path
         d="M 0,682.667 H 1024 V 0 H 0 Z"
         transform="translate(-489.85176,-467.49711)"
         id="path313" />
    </clipPath>
    <clipPath
       clipPathUnits="userSpaceOnUse"
       id="clipPath315">
      <path
         d="M 0,682.667 H 1024 V 0 H 0 Z"
         transform="translate(-498.81726,-369.28421)"
         id="path315" />
    </clipPath>
    <clipPath
       clipPathUnits="userSpaceOnUse"
       id="clipPath317">
      <path
         d="M 0,682.667 H 1024 V 0 H 0 Z"
         transform="translate(-511.69026,-212.3565)"
         id="path317" />
    </clipPath>
    <clipPath
       clipPathUnits="userSpaceOnUse"
       id="clipPath319">
      <path
         d="M 0,682.667 H 1024 V 0 H 0 Z"
         transform="translate(-505.38876,-48.542001)"
         id="path319" />
    </clipPath>
    <clipPath
       clipPathUnits="userSpaceOnUse"
       id="clipPath321">
      <path
         d="M 0,682.667 H 1024 V 0 H 0 Z"
         transform="translate(-489.85176,-467.49711)"
         id="path321" />
    </clipPath>
    <clipPath
       clipPathUnits="userSpaceOnUse"
       id="clipPath323">
      <path
         d="M 0,682.667 H 1024 V 0 H 0 Z"
         transform="translate(2.5e-4)"
         id="path323" />
    </clipPath>
    <clipPath
       clipPathUnits="userSpaceOnUse"
       id="clipPath325">
      <path
         d="M 0,682.667 H 1024 V 0 H 0 Z"
         transform="translate(-489.03501,-670.80322)"
         id="path325" />
    </clipPath>
    <clipPath
       clipPathUnits="userSpaceOnUse"
       id="clipPath327">
      <path
         d="M 0,682.667 H 1024 V 0 H 0 Z"
         transform="translate(-702.29452,-618.39262)"
         id="path327" />
    </clipPath>
    <clipPath
       clipPathUnits="userSpaceOnUse"
       id="clipPath329">
      <path
         d="M 0,682.667 H 1024 V 0 H 0 Z"
         transform="translate(2.5e-4)"
         id="path329" />
    </clipPath>
    <clipPath
       clipPathUnits="userSpaceOnUse"
       id="clipPath331">
      <path
         d="M 0,682.667 H 1024 V 0 H 0 Z"
         transform="translate(-702.29452,-337.02491)"
         id="path331" />
    </clipPath>
    <clipPath
       clipPathUnits="userSpaceOnUse"
       id="clipPath333">
      <path
         d="M 0,682.667 H 1024 V 0 H 0 Z"
         transform="translate(-990.56077,-363.23101)"
         id="path333" />
    </clipPath>
    <clipPath
       clipPathUnits="userSpaceOnUse"
       id="clipPath335">
      <path
         d="M 0,682.667 H 1024 V 0 H 0 Z"
         transform="translate(2.5e-4)"
         id="path335" />
    </clipPath>
    <clipPath
       clipPathUnits="userSpaceOnUse"
       id="clipPath337">
      <path
         d="M 0,682.667 H 1024 V 0 H 0 Z"
         transform="translate(2.5e-4)"
         id="path337" />
    </clipPath>
  </defs>
  <g
     id="layer-MC0"
     transform="translate(-11737.332)">
    <path
       id="path306"
       d="m 0,0 c -46.077,-15.667 -116.137,-31.654 -210.178,-31.654 -184.378,0 -276.568,61.458 -276.568,61.458 v 122.921 c 0,0 92.19,-61.46 276.568,-61.46 89.149,0 156.747,14.368 202.79,29.21 C 41.797,136.331 44.259,15.051 0,0"
       style="fill:#ffffff;fill-opacity:1;fill-rule:nonzero;stroke:none"
       transform="matrix(0.48235396,0,0,-0.50307203,11985.807,242.62713)"
       clip-path="url(#clipPath307)" />
    <path
       id="path308"
       d="m 0,0 c -45.429,-16.961 -119.778,-36.242 -223.051,-36.242 -184.378,0 -276.568,61.459 -276.568,61.459 v 122.921 c 0,0 92.19,-61.462 276.568,-61.462 98.271,0 170.355,17.461 216.25,33.768 C 33.41,134.732 35.678,13.321 0,0"
       style="fill:#ffffff;fill-opacity:1;fill-rule:nonzero;stroke:none"
       transform="matrix(0.48235396,0,0,-0.50307203,11992.016,321.57307)"
       clip-path="url(#clipPath309)" />
    <path
       id="path310"
       d="m 0,0 c -45.867,-16.356 -118.12,-33.942 -216.75,-33.942 -184.377,0 -276.567,61.457 -276.567,61.457 v 122.92 c 0,0 92.19,-61.46 276.567,-61.46 96.646,0 167.96,16.886 213.947,32.956 C 38.944,136.518 39.879,14.222 0,0"
       style="fill:#ffffff;fill-opacity:1;fill-rule:nonzero;stroke:none"
       transform="matrix(0.48235396,0,0,-0.50307203,11988.976,403.98356)"
       clip-path="url(#clipPath311)" />
    <path
       id="path312"
       d="m 0,0 c -50.424,-17.815 -121.909,-28.939 -201.196,-28.939 -152.766,0 -276.57,41.29 -276.57,92.188 0,50.896 123.804,92.188 276.57,92.188 78.693,0 149.703,-10.955 200.063,-28.54"
       style="fill:#ffffff;fill-opacity:1;fill-rule:nonzero;stroke:none"
       transform="matrix(0.48235396,0,0,-0.50307203,11981.482,193.21896)"
       clip-path="url(#clipPath313)" />
    <path
       id="path314"
       d="m 0,0 c -46.077,-15.667 -116.137,-31.654 -210.178,-31.654 -184.378,0 -276.568,61.458 -276.568,61.458 v 122.921 c 0,0 92.19,-61.46 276.568,-61.46 89.149,0 156.747,14.368 202.79,29.21 C 41.797,136.331 44.259,15.051 0,0"
       style="fill:#ffffff;fill-opacity:1;fill-rule:nonzero;stroke:none"
       transform="matrix(0.48235396,0,0,-0.50307203,11985.807,242.62713)"
       clip-path="url(#clipPath315)" />
    <path
       id="path316"
       d="m 0,0 c -45.429,-16.961 -119.778,-36.242 -223.051,-36.242 -184.378,0 -276.568,61.459 -276.568,61.459 v 122.921 c 0,0 92.19,-61.462 276.568,-61.462 98.271,0 170.355,17.461 216.25,33.768 C 33.41,134.732 35.678,13.321 0,0"
       style="fill:#ffffff;fill-opacity:1;fill-rule:nonzero;stroke:none"
       transform="matrix(0.48235396,0,0,-0.50307203,11992.016,321.57307)"
       clip-path="url(#clipPath317)" />
    <path
       id="path318"
       d="m 0,0 c -45.867,-16.356 -118.12,-33.942 -216.75,-33.942 -184.377,0 -276.567,61.457 -276.567,61.457 v 122.92 c 0,0 92.19,-61.46 276.567,-61.46 96.646,0 167.96,16.886 213.947,32.956 C 38.944,136.518 39.879,14.222 0,0"
       style="fill:#ffffff;fill-opacity:1;fill-rule:nonzero;stroke:none"
       transform="matrix(0.48235396,0,0,-0.50307203,11988.976,403.98356)"
       clip-path="url(#clipPath319)" />
    <path
       id="path320"
       d="m 0,0 c -50.424,-17.815 -121.909,-28.939 -201.196,-28.939 -152.766,0 -276.57,41.29 -276.57,92.188 0,50.896 123.804,92.188 276.57,92.188 78.693,0 149.703,-10.955 200.063,-28.54"
       style="fill:#ffffff;fill-opacity:1;fill-rule:nonzero;stroke:none"
       transform="matrix(0.48235396,0,0,-0.50307203,11981.482,193.21896)"
       clip-path="url(#clipPath321)" />
    <path
       id="path322"
       d="m 596.936,670.803 h -54.745 v -52.411 h 54.745 z"
       style="fill:#ffffff;fill-opacity:1;fill-rule:nonzero;stroke:none"
       transform="matrix(0.48235396,0,0,-0.50307203,11745.2,428.40368)"
       clip-path="url(#clipPath323)" />
    <path
       id="path324"
       d="m 0,0 c -26.209,0 -26.209,-26.205 -26.209,-26.205 v -26.206 -26.206 h -26.202 c -28.817,0 -52.411,-23.565 -52.411,-52.409 v -445.496 c 0,-28.808 23.594,-52.4 52.411,-52.4 H 52.411 c 28.815,0 52.403,23.592 52.403,52.4 v 445.496 c 0,28.844 -23.588,52.409 -52.403,52.409 H 26.206 v 26.206 h 36.61 V 0 Z"
       style="fill:#ffffff;fill-opacity:1;fill-rule:nonzero;stroke:none"
       transform="matrix(0.48235396,0,0,-0.50307203,11981.088,90.941349)"
       clip-path="url(#clipPath325)" />
    <path
       id="path326"
       d="m 0,0 v 26.206 c 0,0 0,26.205 -26.201,26.205 H -92.076 V 0 h 39.67 V -128.167 H 0 Z"
       style="fill:#ffffff;fill-opacity:1;fill-rule:nonzero;stroke:none"
       transform="matrix(0.48235396,0,0,-0.50307203,12083.955,117.30766)"
       clip-path="url(#clipPath327)" />
    <path
       id="path328"
       d="m 702.294,469.697 h -52.406 v -64.405 h 52.406 z"
       style="fill:#ffffff;fill-opacity:1;fill-rule:nonzero;stroke:none"
       transform="matrix(0.48235396,0,0,-0.50307203,11745.2,428.40368)"
       clip-path="url(#clipPath329)" />
    <path
       id="path330"
       d="m 0,0 v 69.475 h -52.406 v -95.684 c 0,0 0,-26.202 26.205,-26.202 H 0 24.595 L 24.824,0 Z"
       style="fill:#ffffff;fill-opacity:1;fill-rule:nonzero;stroke:none"
       transform="matrix(0.48235396,0,0,-0.50307203,12083.955,258.85588)"
       clip-path="url(#clipPath331)" />
    <path
       id="path332"
       d="m 0,0 h -235.855 c -14.406,0 -26.207,-11.769 -26.207,-26.206 h -1.381 l -0.229,-52.411 h 1.61 c 0,-14.406 11.801,-26.205 26.207,-26.205 H 0 c 14.383,0 26.205,11.799 26.205,26.205 v 52.411 C 26.205,-11.769 14.383,0 0,0"
       style="fill:#ffffff;fill-opacity:1;fill-rule:nonzero;stroke:none"
       transform="matrix(0.48235396,0,0,-0.50307203,12223.001,245.67232)"
       clip-path="url(#clipPath333)" />
    <path
       id="path334"
       d="m 702.294,516.793 h -52.406 v -64.405 h 52.406 z"
       style="fill:#ffffff;fill-opacity:1;fill-rule:nonzero;stroke:none"
       transform="matrix(0.48235396,0,0,-0.50307203,11745.2,428.40368)"
       clip-path="url(#clipPath335)" />
    <path
       id="path336"
       d="m 628.736,670.803 h -54.744 v -52.411 h 54.744 z"
       style="fill:#ffffff;fill-opacity:1;fill-rule:nonzero;stroke:none"
       transform="matrix(0.48235396,0,0,-0.50307203,11745.2,428.40368)"
       clip-path="url(#clipPath337)" />
  </g>
</svg>
